<svg width="18" height="18" viewBox="0 0 18 18" version="1.1" xmlns="http://www.w3.org/2000/svg" xmlns:xlink="http://www.w3.org/1999/xlink">
<g id="Canvas" transform="translate(-548 458)">
<g id="003-facebook-app-logo">
<g id="Group">
<g id="Vector">
<use xlink:href="#path0_fill" transform="translate(548 -458)" fill="#FE3265"/>
</g>
</g>
</g>
</g>
<defs>
<path id="path0_fill" d="M 17.0059 1.40775e-11L 0.99348 1.40775e-11C 0.445169 1.40775e-11 0 0.44428 0 0.99348L 0 17.0059C 0 17.5551 0.445169 18 0.99348 18L 9.61411 18L 9.61411 11.0293L 7.26852 11.0293L 7.26852 8.31239L 9.61411 8.31239L 9.61411 6.30883C 9.61411 3.98429 11.0335 2.71784 13.1076 2.71784C 14.102 2.71784 14.9547 2.79223 15.2033 2.82454L 15.2033 5.2543L 13.7647 5.25489C 12.6369 5.25489 12.4194 5.79105 12.4194 6.57736L 12.4194 8.3115L 15.11 8.3115L 14.7582 11.0282L 12.4191 11.0282L 12.4191 17.9991L 17.0056 17.9991C 17.5545 17.9991 18 17.5536 18 17.0059L 18 0.992887C 17.9997 0.44428 17.5548 1.40775e-11 17.0059 1.40775e-11Z"/>
</defs>
</svg>
