<svg width="18" height="18" viewBox="0 0 18 18" version="1.1" xmlns="http://www.w3.org/2000/svg" xmlns:xlink="http://www.w3.org/1999/xlink">
<g id="Canvas" transform="translate(-506 458)">
<g id="002-instagram-logo">
<g id="Group">
<g id="Vector">
<use xlink:href="#path0_fill" transform="translate(506 -458)" fill="#FE3265"/>
</g>
<g id="Vector">
<use xlink:href="#path1_fill" transform="translate(510.362 -453.638)" fill="#FE3265"/>
</g>
<g id="Vector">
<use xlink:href="#path2_fill" transform="translate(518.661 -454.992)" fill="#FE3265"/>
</g>
</g>
</g>
</g>
<defs>
<path id="path0_fill" d="M 13.0325 0L 4.96724 0C 2.22831 0 0 2.22841 0 4.96735L 0 13.0327C 0 15.7717 2.22831 18 4.96724 18L 13.0325 18C 15.7717 18 18 15.7716 18 13.0327L 18 4.96735C 18.0001 2.22841 15.7717 0 13.0325 0ZM 16.4031 13.0327C 16.4031 14.8911 14.8911 16.403 13.0327 16.403L 4.96724 16.403C 3.10892 16.4031 1.59705 14.8911 1.59705 13.0327L 1.59705 4.96735C 1.59705 3.10903 3.10892 1.59705 4.96724 1.59705L 13.0325 1.59705C 14.891 1.59705 16.403 3.10903 16.403 4.96735L 16.403 13.0327L 16.4031 13.0327Z"/>
<path id="path1_fill" d="M 4.63814 1.29968e-07C 2.08063 1.29968e-07 -1.59211e-07 2.08063 -1.59211e-07 4.63814C -1.59211e-07 7.19555 2.08063 9.27608 4.63814 9.27608C 7.19566 9.27608 9.27629 7.19555 9.27629 4.63814C 9.27629 2.08063 7.19566 1.29968e-07 4.63814 1.29968e-07ZM 4.63814 7.67892C 2.96135 7.67892 1.59705 6.31483 1.59705 4.63804C 1.59705 2.96114 2.96124 1.59694 4.63814 1.59694C 6.31504 1.59694 7.67924 2.96114 7.67924 4.63804C 7.67924 6.31483 6.31494 7.67892 4.63814 7.67892Z"/>
<path id="path2_fill" d="M 1.17117 -5.84856e-08C 0.863471 -5.84856e-08 0.561202 0.12457 0.343898 0.342833C 0.125528 0.560031 -2.53438e-07 0.862405 -2.53438e-07 1.17117C -2.53438e-07 1.47897 0.125634 1.78124 0.343898 1.9995C 0.561096 2.2167 0.863471 2.34234 1.17117 2.34234C 1.47993 2.34234 1.78124 2.2167 1.9995 1.9995C 2.21777 1.78124 2.34234 1.47887 2.34234 1.17117C 2.34234 0.862405 2.21777 0.560031 1.9995 0.342833C 1.78231 0.12457 1.47993 -5.84856e-08 1.17117 -5.84856e-08Z"/>
</defs>
</svg>
