<svg width="18" height="18" viewBox="0 0 18 18" version="1.1" xmlns="http://www.w3.org/2000/svg" xmlns:xlink="http://www.w3.org/1999/xlink">
<g id="Canvas" transform="translate(-464 458)">
<g id="001-linkedin-logo">
<g id="Group">
<g id="LinkedIn  x28 alt x29">
<use xlink:href="#path0_fill" transform="translate(464 -458)" fill="#FE3265"/>
</g>
</g>
</g>
</g>
<defs>
<path id="path0_fill" d="M 16.6707 0L 1.32996 0C 0.595385 0 3.97544e-12 0.577223 3.97544e-12 1.28966L 3.97544e-12 16.7098C 3.97544e-12 17.4223 0.595595 18 1.32996 18L 16.6707 18C 17.4051 18 17.9998 17.4219 17.9998 16.7098L 17.9998 1.28966C 17.9998 0.577432 17.4051 0 16.6707 0ZM 5.45702 15.0672L 2.73738 15.0672L 2.73738 6.94044L 5.45702 6.94044L 5.45702 15.0672ZM 4.09748 5.83019L 4.07919 5.83019C 3.16717 5.83019 2.57597 5.20647 2.57597 4.42561C 2.57597 3.62902 3.18454 3.02221 4.11463 3.02221C 5.04481 3.02221 5.61697 3.62885 5.63505 4.42561C 5.63505 5.20664 5.04502 5.83019 4.09748 5.83019ZM 15.2605 15.0672L 12.5418 15.0672L 12.5418 10.7191C 12.5418 9.62656 12.1478 8.88106 11.1646 8.88106C 10.4125 8.88106 9.966 9.38401 9.76994 9.86958C 9.69729 10.043 9.67929 10.2856 9.67929 10.5278L 9.67929 15.0671L 6.96103 15.0671C 6.96103 15.0671 6.99661 7.70251 6.96103 6.94032L 9.67971 6.94032L 9.67971 8.09246C 10.0406 7.53884 10.6856 6.74911 12.1293 6.74911C 13.9188 6.74911 15.2605 7.90996 15.2605 10.4073L 15.2605 15.0672ZM 9.66213 8.11828C 9.66678 8.11067 9.67327 8.1015 9.67971 8.09259L 9.67971 8.11828L 9.66213 8.11828Z"/>
</defs>
</svg>
