<svg width="38" height="30" viewBox="0 0 38 30" version="1.1" xmlns="http://www.w3.org/2000/svg" xmlns:xlink="http://www.w3.org/1999/xlink">
<title>previus</title>
<desc>Created using Figma</desc>
<g id="Canvas" transform="translate(680 465)">
<g id="previus">
<g id="Group">
<g id="Vector">
<use xlink:href="#path0_fill" transform="matrix(-1 -1.22465e-16 1.22465e-16 -1 -642.446 -449.424)" fill="#FE3265"/>
</g>
<g id="Vector">
<use xlink:href="#path1_fill" transform="matrix(-1 -1.22465e-16 1.22465e-16 -1 -664.422 -435)" fill="#FE3265"/>
</g>
</g>
</g>
</g>
<defs>
<path id="path0_fill" d="M 36.9789 1.15074L 0.575368 1.15074C 0.257765 1.15074 0 0.892971 0 0.575368C 0 0.257764 0.257765 4.47751e-07 0.575368 4.47751e-07L 36.9789 4.47751e-07C 37.2965 4.47751e-07 37.5543 0.257764 37.5543 0.575368C 37.5543 0.892971 37.2965 1.15074 36.9789 1.15074Z"/>
<path id="path1_fill" d="M 0.575656 30C 0.428361 30 0.281067 29.9436 0.168295 29.832C -0.056099 29.6076 -0.056099 29.2428 0.168295 29.0184L 14.1889 14.9978L 0.168295 0.981866C -0.056099 0.757473 -0.056099 0.392689 0.168295 0.168295C 0.392688 -0.0560985 0.757473 -0.0560985 0.981867 0.168295L 15.4087 14.5905C 15.5168 14.6987 15.5767 14.8448 15.5767 14.9978C 15.5767 15.1509 15.5157 15.297 15.4087 15.4052L 0.981867 29.8308C 0.870245 29.9436 0.72295 30 0.575656 30Z"/>
</defs>
</svg>
